<svg xmlns="http://www.w3.org/2000/svg" viewBox="0 0 667 667"><defs><style>.cls-1{fill:#ffcc02;}.cls-1,.cls-2,.cls-3,.cls-4{fill-rule:evenodd;}.cls-2{fill:#173118;}.cls-3{fill:#fff;}.cls-4{fill:#f6e2b3;}</style></defs><title>CVHS_logo</title><g id="Layer_2" data-name="Layer 2"><g id="Layer_2-2" data-name="Layer 2"><path class="cls-1" d="M333.5,667C517.19,667,667,517.19,667,333.5S517.19,0,333.5,0,0,149.81,0,333.5,149.81,667,333.5,667Z"/><path class="cls-2" d="M333.5,658.22c178.85,0,324.72-145.87,324.72-324.72S512.35,8.78,333.5,8.78,8.78,154.65,8.78,333.5,154.65,658.22,333.5,658.22Z"/><path class="cls-1" d="M333.5,551.49c120.07,0,218-97.93,218-218s-97.93-218-218-218-218,97.93-218,218S213.43,551.49,333.5,551.49Z"/><path class="cls-3" d="M91.64,291.8q2.38,6,1.66,15.46-.93,12.26-8.68,18.75t-19.77,5.57q-12.8-1-20.16-9.47T38.29,301a38.3,38.3,0,0,1,3-13l11.57.88a23.36,23.36,0,0,0-4.13,12q-.57,7.5,3.8,12.48T65,318.88q7.73.59,12.66-3.42t5.49-11.37A25,25,0,0,0,80.66,291l11,.83Zm11.76-31.07q-3.69,10.89-13.08,15.35t-20.78.6q-12-4.07-17.08-13.53t-1.19-21q3.67-10.86,13-15.15t21-.36q11.94,4,16.91,13.46t1.18,20.58ZM61,245.83a12.1,12.1,0,0,0,1.28,11.07q3.31,5.05,10.72,7.57t13.11.5a11.94,11.94,0,0,0,7.51-7.77,12.1,12.1,0,0,0-1.09-10.81q-3.1-4.9-10.65-7.46-7.89-2.67-13.4-.8A11.57,11.57,0,0,0,61,245.83Zm78-59.53L83.14,176.13,76,188.51l36.66,43.56,6.51-11.33-8.44-9.2L120.24,195l12.22,2.63L139,186.3Zm-28.16,6.53L104,204.7,91.2,190.62a20.6,20.6,0,0,0-3.58-3.13l.15-.25a24.07,24.07,0,0,0,4.62,1.62l18.45,4Zm58.85-40.58q-2,6.18-8.51,13-8.49,8.9-18.59,9t-18.83-8.21q-9.29-8.86-9.6-20.1t8.42-20.4a38.27,38.27,0,0,1,10.55-8.19l8.4,8A23.37,23.37,0,0,0,130.77,132q-5.19,5.45-5,12.07t6.1,12.2q5.61,5.35,12,5.37t11.45-5.33a25,25,0,0,0,6.41-11.71l8,7.6Zm48.23-31.61-28.87-45-10.17,6.52,11.52,18-18.65,12-11.52-18-10.15,6.51,28.87,45,10.15-6.51-11.76-18.34,18.65-12,11.76,18.34,10.17-6.52Zm42.37-17.86-29.85,11.77L210.83,64.79l28.7-11.32,3.6,9.12-17.48,6.89L230,80.56l16.28-6.42,3.58,9.09-16.28,6.42L238.08,101l18.63-7.35,3.59,9.1Zm41-9.6-2.2-9.53-19.29,4.45L270,45.51l-11.75,2.71,12,52.12,31-7.17Zm40.78-1.28-31.85.81-1.35-53.48,12.06-.31L322,82.63l19.79-.5.25,9.78ZM399,100l-12.92-2.31-1.65-12.39L365.71,82l-5.8,11.06L347,90.76l28.58-49.24L389.69,44,399,100ZM383.34,75.76,380.85,57a24.07,24.07,0,0,1,0-4.9l-.29-.05a20.65,20.65,0,0,1-1.73,4.43l-8.92,16.83,13.48,2.41ZM509.29,94.37l-42.65,37.18-11.83-6.8L465.69,69.3l11.26,6.47-8.89,37.84a26.49,26.49,0,0,1-1.72,5.17l.19.11a30.43,30.43,0,0,1,3.74-4.18l28.09-26.62,10.94,6.29Zm10,82.54,23.14-51.84-10.34-9.86-51,25.27,9.46,9,10.94-6,13.77,13.13-5.46,11.24,9.5,9.06Zm.34-28.9-9.91-9.45,16.72-9.11a20.62,20.62,0,0,0,3.89-2.73l.21.2a24,24,0,0,0-2.67,4.11l-8.25,17Zm22.66,62-18.46-26,43.6-31,7,9.83-35.63,25.33,11.47,16.14-8,5.67Zm17.51,36.78,8.91-4-8.16-18,39.83-18-5-11-48.74,22,13.13,29ZM571.62,286l-8.76-30.87,51.46-14.61,8.43,29.68-9.43,2.68-5.13-18.08L596.73,258l4.78,16.83-9.4,2.67-4.78-16.83L575.56,264,581,283.31,571.62,286ZM630,332.24l-1-12.71-20.71-7.22a19.83,19.83,0,0,0-4.29-.84v-.15c2.48-.85,3.9-1.37,4.26-1.55l19.24-10.11-1-13.72-33.3,19.55-18.75,1.43.91,12,19-1.44Z"/><path class="cls-3" d="M114.82,533.17l-7.16-9.09L124,511.16,110.9,494.5,94.52,507.42l-7.15-9.07,40.23-31.72,7.15,9.07L118.7,488.35,131.83,505l16-12.65,7.17,9.09-40.23,31.72Zm62.12-11.34-14.5-13.93-6.19,6.44,3.09,3-23.13,24.07-3.09-3-6.19,6.44,14.5,13.93,6.19-6.44-3.09-3,23.13-24.07,3.09,3,6.19-6.44Zm14.44,67.83q-8.64-.47-18-6.56-10.35-6.74-12.6-16.37T165.11,547q6.59-10.12,17.27-12.24t21.52,4.92a42,42,0,0,1,10.8,9.72l-5.91,9.08q-3.09-6.12-10.28-10.79a15.54,15.54,0,0,0-12.34-2.48c-4.23,1-7.75,3.61-10.58,8s-4,8.56-3.28,12.45,3,7.08,6.82,9.59a15.27,15.27,0,0,0,6.15,2.61l5.46-8.39-8.58-5.59,5-7.73,18.26,11.89-14.06,21.59Zm56.53,28.2,19.21-47.49L256.4,566,248.73,585l-19.67-8,7.66-18.95L226,553.73l-19.21,47.49,10.71,4.33,7.82-19.34,19.67,8-7.82,19.34,10.73,4.34Zm56.58,8.54.39-11.43a22,22,0,0,0,13.92,5.7,16.58,16.58,0,0,0,3.82-.26,8.84,8.84,0,0,0,2.76-1,4.7,4.7,0,0,0,1.68-1.58,4,4,0,0,0,.61-2,4.39,4.39,0,0,0-.76-2.7,9,9,0,0,0-2.27-2.26,22.82,22.82,0,0,0-3.46-2q-2-1-4.32-2.05a22.25,22.25,0,0,1-8.74-6.41,13.32,13.32,0,0,1-2.64-8.8,13.85,13.85,0,0,1,1.83-6.82,13.7,13.7,0,0,1,4.54-4.59,19.91,19.91,0,0,1,6.5-2.51,32.79,32.79,0,0,1,7.75-.61,47,47,0,0,1,7.08.73,27.65,27.65,0,0,1,5.64,1.68l-.37,10.68a17.35,17.35,0,0,0-2.75-1.67,23.56,23.56,0,0,0-3.09-1.24,24.72,24.72,0,0,0-3.17-.77,23.94,23.94,0,0,0-3-.31,16.08,16.08,0,0,0-3.58.24,9.46,9.46,0,0,0-2.75,1,5.38,5.38,0,0,0-1.77,1.56,3.89,3.89,0,0,0-.67,2.1,4,4,0,0,0,.59,2.33,7.66,7.66,0,0,0,1.87,2,21.12,21.12,0,0,0,3,1.88c1.16.63,2.49,1.27,4,1.94a44.88,44.88,0,0,1,5.41,2.92,19.49,19.49,0,0,1,4.08,3.41,12.77,12.77,0,0,1,2.54,4.26A16.64,16.64,0,0,1,338,622.31a13.08,13.08,0,0,1-4.57,4.55,19,19,0,0,1-6.56,2.37,37.6,37.6,0,0,1-7.84.51,43.43,43.43,0,0,1-8-1,24.22,24.22,0,0,1-6.52-2.37Zm88.87-4.07q-5.24,3.34-14.23,4.41-11.7,1.38-19.22-4.7T351,604.48q-1.44-12.21,5.19-20.69t18.67-9.91a36.69,36.69,0,0,1,12.78.4l1.3,11a22.38,22.38,0,0,0-12-1.68,15.55,15.55,0,0,0-11,5.87q-3.86,5-3,12.73.87,7.37,5.54,11.27t11.7,3.06a23.92,23.92,0,0,0,11.88-4.72l1.24,10.48ZM453.28,605l-10.95,3.75L435.57,589l-20.07,6.88,6.76,19.74-10.92,3.74-16.6-48.47,10.92-3.74,6.62,19.34,20.07-6.88-6.62-19.34,10.95-3.75L453.28,605ZM491,584.64q9.53-6,11.5-16T498,548.38q-6.29-9.92-15.86-12.37t-18.83,3.43q-9.81,6.22-11.73,16.33t4.58,20.36q6.16,9.72,15.85,12.06t19-3.56ZM468.38,548a11.09,11.09,0,0,1,10.22-1.24q5.23,1.93,9.5,8.66,4.09,6.46,3.44,12a11.59,11.59,0,0,1-5.7,8.71,11.44,11.44,0,0,1-10.27,1.27q-5.39-1.84-9.47-8.26T462.68,557a11.58,11.58,0,0,1,5.7-9Zm73.36-3.78q-7.94,7.63-17.89,7.27t-17.93-8.66q-8.42-8.75-8.55-19t8.23-18.34q7.91-7.61,17.77-7.12t18,9q8.37,8.7,8.44,18.91t-8.07,18Zm-29.48-31.38a11.58,11.58,0,0,0-3.79,10q.59,5.76,5.78,11.16t10.93,6.21A11.43,11.43,0,0,0,535,536.9a11.59,11.59,0,0,0,3.85-9.67q-.47-5.53-5.76-11-5.53-5.75-11-6.59a11.09,11.09,0,0,0-9.77,3.25Zm74.84-26.65-7.62-5.44-11,15.43L534.4,471.86l-6.71,9.4L569.37,511Z"/><path class="cls-1" d="M196,203.49c-5.94-2.69-8.94-7.56-10.36-13.43-2.17-9,.57-16.36,7.85-22l1.26-1-.95-1.63c-3.34-6-2.49-11.93,2.31-16.69,6.23-6.19,16.46-8.51,25-8.75,4.2-.12,8.39-.23,12.59-.31a1.4,1.4,0,0,0,1.48-.87c4.58-10,12.35-17.21,21.29-23.25,20.14-13.62,49.49-19.38,73.68-18.62,24.66.78,47.86,6.82,69.19,19.43a115,115,0,0,1,29,24.19,2.22,2.22,0,0,0,1.84.89c1.4,0,2.8.06,4.2.1,6.09.17,12.18.29,18.27.54,11.34.46,21.21,7.52,19.6,20a31.88,31.88,0,0,1-2.66,8.76l1.17.86c9.65,7,13.13,18.13,7.54,29l-.75,1.46c2,.69,3.85,1.4,5.75,1.95A98.38,98.38,0,0,0,504.93,208c4.23.25,8.47.49,12.7.78a19.9,19.9,0,0,1,4.25.73c3.48,1.2,2.4,3.76.87,6.09A24.26,24.26,0,0,1,521,218c-9.68,11.41-20.81,21-34.31,27.69-1,.5-2,1-3.06,1.44a1.41,1.41,0,0,0-1,1.43,192.41,192.41,0,0,0-.33,22.06c.33,7,.94,14,1.87,21,1.24,9.25,2.57,18.5,3.78,27.75A235.54,235.54,0,0,1,490.18,358c-1.46,42.62-14.83,78.61-43.47,110.37a270.39,270.39,0,0,1-29.8,27.94c-8.45,6.92-17,13.71-25.46,20.63l-2.2,1.82a63.79,63.79,0,0,0-98.71,16.57c-55.46-27.09-102.32-64.07-116.63-127.5-4.33-19.21-5.48-39.16-4.48-58.79a298.39,298.39,0,0,1,3.11-31c1-6.46,2.16-12.9,3.28-19.34a6.63,6.63,0,0,0-.07-2.66c-6.78-30-6.61-57.32,12.52-83.08C190.67,209.79,193.39,206.55,196,203.49Z"/><path class="cls-2" d="M191.66,207.84c-5.94-2.69-8.94-7.56-10.36-13.43-2.17-9,.57-16.36,7.86-22l1.26-1c-.33-.56-.65-1.09-.95-1.63A13.15,13.15,0,0,1,188,159a14.47,14.47,0,0,1,3.73-5.89,27.85,27.85,0,0,1,10.89-6.35,47,47,0,0,1,14.08-2.4c4.2-.12,8.39-.23,12.59-.31a1.4,1.4,0,0,0,1.48-.87c4.58-10,12.35-17.21,21.29-23.25A100.58,100.58,0,0,1,280.73,107a148.58,148.58,0,0,1,45.06-5.7c24.66.78,47.86,6.82,69.19,19.43a115,115,0,0,1,29,24.19,2.22,2.22,0,0,0,1.84.89c1.4,0,2.8.06,4.2.1,6.09.17,12.18.29,18.27.54a25.64,25.64,0,0,1,10.79,2.8c7,3.6,9.71,10.18,8.81,17.21a27.3,27.3,0,0,1-2.19,7.65c-.15.33-.28.66-.47,1.12l1.17.86a24.19,24.19,0,0,1,9.17,12.1,21.18,21.18,0,0,1-1.63,16.9l-.75,1.46c2,.69,3.85,1.4,5.75,1.95a98.44,98.44,0,0,0,21.66,3.87c4.23.25,8.47.49,12.7.78,1.17.08,2.32.32,3.48.51a4.68,4.68,0,0,1,.78.22c2.23.77,2.81,2,1.9,4.19a12,12,0,0,1-1,1.9,24.46,24.46,0,0,1-1.75,2.41c-9.68,11.41-20.81,21-34.31,27.69-1,.5-2,1-3.06,1.44a1.41,1.41,0,0,0-1,1.43A192.41,192.41,0,0,0,478,275c.33,7,.94,14,1.87,21,1.24,9.25,2.57,18.5,3.78,27.75a235.54,235.54,0,0,1,2.19,38.61c-.74,21.65-4.59,42.66-12.92,62.74a165.71,165.71,0,0,1-30.54,47.63,270.26,270.26,0,0,1-29.81,27.94c-8.45,6.92-17,13.71-25.46,20.63a140.41,140.41,0,0,0-15.52,14.5,58.88,58.88,0,0,0-7.15,9.51c-.75,1.28-1.42,2.61-2.09,3.95a20.09,20.09,0,0,0-2.09,7.37c-.18,2.16-.58,4.29-.75,6.45a39.66,39.66,0,0,0,0,4.18c0,.44.09.88.15,1.4-4.1-1.11-8.12-2.05-12-3.45a608.82,608.82,0,0,1-61.44-25.48,323.7,323.7,0,0,1-47.87-28.19,199.45,199.45,0,0,1-35.1-31.88,154.55,154.55,0,0,1-33.72-67.47A192.69,192.69,0,0,1,165.76,388a237.76,237.76,0,0,1-.67-34.62,298.11,298.11,0,0,1,3.11-31c1-6.46,2.16-12.9,3.28-19.34a6.63,6.63,0,0,0-.07-2.66,154.85,154.85,0,0,1-3.94-27.28,91.8,91.8,0,0,1,2.24-25.94,82.41,82.41,0,0,1,14.21-29.86c2.18-2.93,4.58-5.69,6.89-8.53.25-.31.52-.61.85-1Zm278,.66h0a1.25,1.25,0,0,0-1-.67l-.12.26,1.17.38.85,1c1.67,2,1.43,3.75-.8,5a16.91,16.91,0,0,1-3.6,1.52,64.44,64.44,0,0,1-13.33,2.16q-11.82,1-23.67.8-16-.26-31.94-.8c-6.13-.2-12.26-.64-18.39-1-4.15-.21-8.29-.54-12.44-.58a198.08,198.08,0,0,0-31.92,2.8c-11.55,1.78-23,4.11-34.35,6.84a3.75,3.75,0,0,1-.69,0,3.34,3.34,0,0,1,.46-.35c4.93-2.13,8-6.36,11.56-10.2a4.11,4.11,0,0,0-.85,0,46.68,46.68,0,0,0-6.28,1.54,65.48,65.48,0,0,1-18,4.16,130.75,130.75,0,0,1-18-.1,110.91,110.91,0,0,0-15.29-.14,37.42,37.42,0,0,0-15,4.27,17.83,17.83,0,0,0-5.23,4.23c-.27.33-.58.62-.87.93l-.29-.1a8.54,8.54,0,0,1,.11-1.94c.49-1.68,1.08-3.34,1.64-5,.31-.9.72-1.76.94-2.67.28-1.14-.2-1.62-1.37-1.5a6.9,6.9,0,0,0-1.58.35q-2.29.82-4.55,1.72a16.6,16.6,0,0,0-8.41,7.52,27.69,27.69,0,0,0-3.09,8.2c-.56,2.69-.93,5.42-1.4,8.13a3,3,0,0,1-.75,2,87,87,0,0,1-4.74-20.69c-2.87,10.15-3.12,20.59-3.85,31-3.52-11.48-4.44-23.08-1.71-35-.28.15-.39.17-.44.24a6.18,6.18,0,0,0-.38.56,110.14,110.14,0,0,0-9.3,18.47,204.17,204.17,0,0,0-7,23.45q-.7,2.8-1.4,5.6a2.87,2.87,0,0,1-.36-1.2,85.27,85.27,0,0,1,.27-16.89,81.16,81.16,0,0,1,6.12-22.23,156.44,156.44,0,0,1,8.91-17.32c.2-.35.38-.72.57-1.08a1.76,1.76,0,0,0-.89.54,107.22,107.22,0,0,0-10.28,12,74.39,74.39,0,0,0-14,34.64,107.88,107.88,0,0,0,0,25.8,213.54,213.54,0,0,0,4.7,26.63c2.43,10.13,5,20.22,7.54,30.32a106.92,106.92,0,0,1,3.46,25,15.31,15.31,0,0,1-.59-1.86c-3.41-13.94-7.73-27.61-12-41.3a5.66,5.66,0,0,0-.55-.94,8.18,8.18,0,0,0-.25.83q-.57,3.68-1.12,7.36-2.07,13.93-2.84,28A240,240,0,0,0,173,383.4,182.58,182.58,0,0,0,176.89,414a140.11,140.11,0,0,0,19.34,46.9A162.46,162.46,0,0,0,226.44,495a267,267,0,0,0,36.1,26,514,514,0,0,0,52.25,27.62c13.22,6.12,26.56,12,39.85,17.91.19.08.39.14.58.2a5.41,5.41,0,0,0-1.37-1.07,33.25,33.25,0,0,1-15.32-20.34c-1.86-6.79-2.06-13.72-1.73-20.68.36-7.62,1.43-15.18,2.42-22.74s1.93-15.21,2.24-22.89a68.8,68.8,0,0,0-2.33-21.16q-2.72-9.84-6.12-19.48a404.48,404.48,0,0,0-20.09-46.84c-3.23-6.46-6.17-13-8.87-19.74-5.13-12.69-9.53-25.61-12.16-39.08a84.66,84.66,0,0,1-1.76-21.66c.37-5.79,1.61-11.34,4.88-16.27a2.44,2.44,0,0,0,.21-.66L295,294c-1.17,1.23-2.38,2.44-3.51,3.7s-2.3,2.66-3.43,4-2.1,2.57-3.15,3.86a1.1,1.1,0,0,1,.15-.84c1.37-2.34,2.69-4.7,4.12-7A39.76,39.76,0,0,1,304,283.57c3.83-2.1,7.77-4,11.68-6,3.5-1.77,7-3.44,10.53-5.25a13.8,13.8,0,0,0,6.77-7.78c.79-2.16,1.58-4.32,2.41-6.46a61.49,61.49,0,0,1,2.5-6,14.51,14.51,0,0,1,9.93-7.72,26.54,26.54,0,0,1,5-.64,52.25,52.25,0,0,1,12.74,1.45c10.95,2.28,21.89,4.57,33,6.24a154.58,154.58,0,0,0,18.72,1.75,156.16,156.16,0,0,0,24.31-1.3,157.65,157.65,0,0,0,21-3.86,97.82,97.82,0,0,0,25.21-10.3,118,118,0,0,0,21.88-17.63,2.79,2.79,0,0,0,.3-.52c-.64-.1-1.16-.2-1.7-.26a159.1,159.1,0,0,1-18.28-3,66.37,66.37,0,0,1-19.48-7.53,4.28,4.28,0,0,0-.74-.29ZM341.56,257.91h0c.43,0,.69,0,1-.07a42.21,42.21,0,0,1,12.8.09,43,43,0,0,1,16.23,6.47c6.94,4.47,12.69,10.25,18,16.5,1.65,1.94,1.58,3.34,0,5.35-.14.18-.28.36-.43.52-5.22,5.76-11.53,9.39-19.44,9.66-5.18.18-10.38.09-15.57.12a1.89,1.89,0,0,1-.54,0,1.68,1.68,0,0,1-1-1.48c.06-.62.57-.62,1-.7,1-.19,2-.33,3.06-.54,2.56-.53,5.14-1,7.65-1.68a13.58,13.58,0,0,0,3.43-1.83,2.39,2.39,0,0,0,1.12-1.86c-1.6-.09-3.13-.21-4.65-.25a21.16,21.16,0,0,1-8.14-1.76l-2-.88a27.9,27.9,0,0,0-15.22-2.07c-2.45.35-4.91.68-7.37,1a15.83,15.83,0,0,1-5.39-.09,5.37,5.37,0,0,1-4.29-3.69c-.08-.25-.19-.48-.31-.78a6.58,6.58,0,0,0-.68.2c-4.05,1.76-8.11,3.51-12.15,5.31-1.22.54-2.65.87-3.16,2.38a24.52,24.52,0,0,0-6.5,11.82c-1.65,6.51-1.41,13.06-.38,19.61a93.06,93.06,0,0,0,6.82,22.6,137.34,137.34,0,0,0,31.46,44.94,107.45,107.45,0,0,0,19.56,14.89c.44.26.9.49,1.45.78.34-3.08.62-5.95,1-8.8A56.86,56.86,0,0,1,362,379.93a13.87,13.87,0,0,1,3.05-4.89,73,73,0,0,1,5.65-5.25,158.19,158.19,0,0,1,27.15-17.23,119.67,119.67,0,0,1,13.21-5.9,4.65,4.65,0,0,1,3.92.2c.56.29,1.11.6,1.65.92.74.44,1.48.87,2.18,1.36a2,2,0,0,0,2.37.1c1.8-1,3.71-1.87,5.49-2.92a35.3,35.3,0,0,0,4.23-2.9,12.91,12.91,0,0,0,4.64-7.72,28.9,28.9,0,0,0,.11-10.62,51.15,51.15,0,0,0-4.61-14.1c-2.79-5.71-5.78-11.33-8.73-17a116.84,116.84,0,0,1-6.12-12.81,25.44,25.44,0,0,1-2-9.2c0-2.52.26-5,.42-7.56.06-.88.17-1.76.27-2.68-.33-.06-.54-.12-.76-.14a163.17,163.17,0,0,1-20.62-2.88c-10.18-2-20.29-4.3-30.3-7a35,35,0,0,0-11.35-1.49,11.82,11.82,0,0,0-6.35,2.06,10.77,10.77,0,0,0-3.94,5.61Zm119.67-54.85h0c2.07-.12,4.14-.24,6.21-.35a1.82,1.82,0,0,0,1.93-1.52c.25-1.1.68-2.15.93-3.25A13.82,13.82,0,0,0,469,187.6,16.74,16.74,0,0,0,463.2,182a37.61,37.61,0,0,0-9.3-4,12.23,12.23,0,0,0-2.23-.55c-5.61-.56-11.21-1.12-16.83-1.6q-8.76-.75-17.53-1.34-9.11-.62-18.23-1.09c-6.13-.32-12.26-.6-18.39-.8-8-.25-16.06-.53-24.09-.55-15,0-30.06.08-45.08.19-5.5,0-11,.18-16.51.36-9.11.3-18.22.67-27.32,1-3,.11-6,.2-8.93.34-6.94.32-13.88.67-20.82,1-4.73.22-9.47.4-14.2.63-6.58.31-13.16.59-19.73,1a17.18,17.18,0,0,0-12.32,6,10.94,10.94,0,0,0-2.73,6.22c-.43,4.36,2.09,8,5.49,10.17a1.44,1.44,0,0,0,.89.17c2.72-.35,5.44-.77,8.17-1.1,3.62-.44,7.25-.87,10.88-1.22s7.1-.61,10.65-.87c4.72-.35,9.44-.69,14.17-1,3.06-.18,6.13-.25,9.19-.38,5.36-.22,10.72-.58,16.09-.64,20.85-.23,41.7-.36,62.54.37,5.86.2,11.72.35,17.58.56q6.83.24,13.65.54,8.65.38,17.3.81c5,.25,9.9.53,14.86.81,5.27.29,10.53.58,15.8.9,3.51.21,7,.49,10.52.73,3.33.23,6.66.42,10,.66,4.09.3,8.18.57,12.26,1,4.26.43,8.51,1,12.75,1.53,3.17.43,6.26,1.37,9.51,1.22ZM394.05,509.91h0l.29.27c.22-.16.44-.31.65-.48,7.7-6.28,15.37-12.58,22.72-19.26a208.08,208.08,0,0,0,29.66-32.76c8.38-11.72,15.13-24.22,19-38.2A221.39,221.39,0,0,0,473,385.8c1.1-9.42,1.68-18.88,1.83-28.36.16-9.75,0-19.5-.76-29.23-.51-6.75-1-13.5-1.78-20.22-.89-7.66-2.08-15.28-3.16-22.91-.22-1.56-.55-3.11-.83-4.67a35.08,35.08,0,0,0-.62,4.87c-.59,7-1.17,13.94-1.79,20.9-.46,5.21-.93,10.43-1.47,15.63q-1.1,10.63-2.32,21.25c-.8,6.9-1.62,13.8-2.55,20.68q-1.75,12.87-3.71,25.71A201.63,201.63,0,0,1,451.24,412a84.08,84.08,0,0,1-7.8,19.84,45.23,45.23,0,0,1-19.62,18.83c-2.59,1.27-5.19,2.53-7.8,3.74-6.87,3.17-14.18,4.42-21.66,4.84A134.5,134.5,0,0,1,368,457.83c-7.37-1-14.68-2.45-21.93-4.14a8,8,0,0,0-1.09-.1c.07.44.1.75.18,1,.41,1.76.9,3.5,1.24,5.27a1.94,1.94,0,0,0,1.67,1.76,151.69,151.69,0,0,0,24.26,4.08,123.67,123.67,0,0,0,25.54-.44,98.61,98.61,0,0,0,25.58-6.67l1.45-.59a2.94,2.94,0,0,1-1.05,1.23c-1.5,1-3,2.09-4.53,3-6,3.26-12,6.53-18,9.62-7,3.56-14.07,6.95-21.38,9.82-.22.09-.43.2-.65.31a3.38,3.38,0,0,0,1.73.23c1.88-.25,3.77-.44,5.61-.85a110.36,110.36,0,0,0,19-6.33,164.8,164.8,0,0,0,28.32-14.94,52.66,52.66,0,0,0,11.22-9.52,3.46,3.46,0,0,1,.54-.36c-.5,1.32-.87,2.42-1.34,3.48a56.79,56.79,0,0,1-6.51,10.74,191,191,0,0,1-16.12,18.61c-8.54,8.89-17.5,17.35-26.44,25.83-.38.36-.8.68-1.21,1Zm64.78-345.51h0a7.34,7.34,0,0,0-3.39-6.45,12.73,12.73,0,0,0-5.5-2.16c-2.76-.42-5.53-.8-8.31-1q-8.83-.77-17.67-1.37c-4.86-.33-9.73-.59-14.59-.81q-10.07-.46-20.15-.83-8.52-.31-17-.53-13.2-.32-26.4-.55c-7.09-.12-14.17-.25-21.26-.25q-22.81,0-45.63.09c-6.5,0-13,.19-19.49.3q-15.9.26-31.79,1.11a108.28,108.28,0,0,0-17.42,2.26,39.45,39.45,0,0,0-8.61,2.79,11.88,11.88,0,0,0-3.67,2.51,4,4,0,0,0-.67,5.09,20.61,20.61,0,0,0,2,2.57,1.68,1.68,0,0,0,1.8.54c2.62-.46,5.24-.91,7.89-1.17,4.35-.43,8.71-.79,13.07-1,4.91-.28,9.82-.39,14.74-.58,3.29-.12,6.58-.2,9.87-.38,5.13-.28,10.26-.67,15.39-1q5.74-.33,11.49-.54c5.41-.21,10.82-.43,16.23-.54q11.78-.24,23.55-.31c14.49-.07,29,.14,43.45.73l16.23.65c2,.09,4.06.21,6.08.33l10.53.68c3.29.22,6.57.41,9.86.67,4.81.38,9.62.8,14.42,1.23,4.27.38,8.54.76,12.8,1.2,4.53.47,9.06,1,13.58,1.52,5.23.65,10.45,1.38,15.67,2.1a1,1,0,0,0,1.21-.57,13.61,13.61,0,0,0,1.76-6.29ZM241.34,144h0c.54-.14.79-.21,1-.26,2.16-.45,4.31-1,6.48-1.31a103.07,103.07,0,0,1,14.58-1q6.22,0,12.45.28c4.46.23,8.9.8,13.35,1a111.89,111.89,0,0,0,29.45-2.49,70.49,70.49,0,0,0,18.18-6.42,31,31,0,0,0,7.57-5.41,12.52,12.52,0,0,0,2.79-4,5.69,5.69,0,0,0-1.35-6.81,15.33,15.33,0,0,0-3.31-2.3,27,27,0,0,0-8.11-2.48,96.76,96.76,0,0,0-23.89-.67c-4.9.37-9.78,1-14.67,1.51a51,51,0,0,0-5.76.72,117,117,0,0,0-26.54,9.52,53.47,53.47,0,0,0-21.36,18.65c-.26.39-.5.8-.89,1.43ZM367,406.88h0a3.2,3.2,0,0,0,.4.27c.33.15.66.28,1,.42a68.52,68.52,0,0,0,30.7,5.11,62,62,0,0,0,10.94-1.78,1.5,1.5,0,0,0,1.23-.91c1.06-2.71,1.08-5.36-1.34-7.73a20.88,20.88,0,0,0-3.38-2.45,25.45,25.45,0,0,0-2.3-1.15,28.88,28.88,0,0,1-8-6.11,1.65,1.65,0,0,1,.37-2.73,4,4,0,0,1,2.59-.59,6.89,6.89,0,0,1,3.15,1.14,12.44,12.44,0,0,0,5.56,2,40,40,0,0,0,6.61.19,58.41,58.41,0,0,0,16.1-4,7.59,7.59,0,0,0,4.75-5.05c.9-3-.53-5.61-3.31-6.19a18.21,18.21,0,0,1-2.58-.72A24.34,24.34,0,0,0,416,375.36a39.74,39.74,0,0,0-8.17,2.81c-2.11.92-4.21,1.85-6.35,2.7a21.63,21.63,0,0,1-6.85,1.49,8.78,8.78,0,0,1-2.67-.26c-1-.27-1.25-1.11-.63-2a3.65,3.65,0,0,1,2.09-1.41c.91-.26,1.82-.51,2.71-.84,6.38-2.39,12.76-4.75,19.11-7.21a8.32,8.32,0,0,1,5-.37c.79.18,1.57.41,2.37.56a5.5,5.5,0,0,0,1.47.12,12,12,0,0,0,6.57-2.62,3,3,0,0,0,.49-.46,2,2,0,0,0,0-2.62c-.61-.79-1.16-.88-2.25-.33a15.73,15.73,0,0,0-1.56.81,2.54,2.54,0,0,1-2.31.23c-2.15-.66-4.33-1.25-6.5-1.85a6.71,6.71,0,0,0-3.21-.05,84.5,84.5,0,0,0-10.93,3.06,103.07,103.07,0,0,0-24.72,13.28,24.74,24.74,0,0,0-2.81,2.32,31.48,31.48,0,0,0-9.2,16.84A27.6,27.6,0,0,0,367,406.88Z"/><path class="cls-3" d="M469.68,208.5a4.39,4.39,0,0,1,.74.29,66.37,66.37,0,0,0,19.48,7.53,159.1,159.1,0,0,0,18.28,3c.53.06,1.06.16,1.7.26a2.79,2.79,0,0,1-.3.52,118,118,0,0,1-21.88,17.63A97.82,97.82,0,0,1,462.48,248a157.65,157.65,0,0,1-21,3.86,156.16,156.16,0,0,1-24.31,1.3,154.58,154.58,0,0,1-18.72-1.75c-11.06-1.66-22-4-33-6.24a52.25,52.25,0,0,0-12.74-1.45,26.54,26.54,0,0,0-5,.64,14.51,14.51,0,0,0-9.93,7.72,61.49,61.49,0,0,0-2.5,6c-.84,2.14-1.62,4.3-2.41,6.46a13.8,13.8,0,0,1-6.77,7.78c-3.48,1.81-7,3.48-10.53,5.25-3.91,2-7.84,3.88-11.68,6a39.76,39.76,0,0,0-14.82,14.15c-1.43,2.3-2.75,4.66-4.12,7a1.1,1.1,0,0,0-.15.84c1-1.29,2.09-2.58,3.15-3.86s2.25-2.71,3.43-4,2.34-2.47,3.51-3.7l.25.17a2.44,2.44,0,0,1-.21.66c-3.27,4.93-4.51,10.48-4.88,16.27a84.66,84.66,0,0,0,1.76,21.66c2.64,13.47,7,26.39,12.16,39.08,2.71,6.69,5.64,13.28,8.87,19.74A404.48,404.48,0,0,1,333,438.42q3.38,9.63,6.12,19.48a68.8,68.8,0,0,1,2.33,21.16c-.3,7.68-1.23,15.28-2.24,22.89s-2.06,15.11-2.42,22.74c-.33,7-.13,13.89,1.73,20.68a33.25,33.25,0,0,0,15.32,20.34,5.41,5.41,0,0,1,1.37,1.07c-.19-.07-.4-.12-.58-.2-13.29-6-26.63-11.79-39.85-17.91A514,514,0,0,1,262.54,521a267,267,0,0,1-36.1-26,162.46,162.46,0,0,1-30.22-34.17A140.11,140.11,0,0,1,176.89,414,182.58,182.58,0,0,1,173,383.4a240,240,0,0,1,.15-24.09q.77-14.06,2.84-28,.55-3.68,1.12-7.36a8.18,8.18,0,0,1,.25-.83,5.66,5.66,0,0,1,.55.94c4.27,13.69,8.58,27.36,12,41.3a15.31,15.31,0,0,0,.59,1.86,106.92,106.92,0,0,0-3.46-25c-2.54-10.1-5.11-20.19-7.54-30.32a213.54,213.54,0,0,1-4.7-26.63,107.88,107.88,0,0,1,0-25.8,74.39,74.39,0,0,1,14-34.64,107.22,107.22,0,0,1,10.28-12,1.76,1.76,0,0,1,.89-.54c-.19.36-.37.73-.57,1.08a156.44,156.44,0,0,0-8.91,17.32,81.16,81.16,0,0,0-6.12,22.23,85.27,85.27,0,0,0-.27,16.89,2.87,2.87,0,0,0,.36,1.2q.7-2.8,1.4-5.6a204.17,204.17,0,0,1,7-23.45,110.14,110.14,0,0,1,9.3-18.47,6.18,6.18,0,0,1,.38-.56c0-.06.15-.09.44-.24-2.73,11.9-1.81,23.51,1.71,35,.73-10.39,1-20.83,3.85-31a87,87,0,0,0,4.74,20.69,3,3,0,0,0,.75-2c.47-2.71.84-5.44,1.4-8.13a27.69,27.69,0,0,1,3.09-8.2,16.6,16.6,0,0,1,8.41-7.52q2.26-.89,4.55-1.72a6.9,6.9,0,0,1,1.58-.35c1.17-.12,1.64.36,1.37,1.5-.22.91-.64,1.78-.94,2.67-.56,1.66-1.15,3.31-1.64,5a8.54,8.54,0,0,0-.11,1.94l.29.1c.29-.31.6-.6.87-.93a17.83,17.83,0,0,1,5.23-4.23,37.42,37.42,0,0,1,15-4.27,110.91,110.91,0,0,1,15.29.14,130.75,130.75,0,0,0,18,.1,65.48,65.48,0,0,0,18-4.16,46.68,46.68,0,0,1,6.28-1.54,4.11,4.11,0,0,1,.85,0c-3.55,3.84-6.63,8.07-11.56,10.2a3.34,3.34,0,0,0-.46.35,3.75,3.75,0,0,0,.69,0c11.36-2.73,22.8-5.06,34.35-6.84a198.08,198.08,0,0,1,31.92-2.8c4.15,0,8.3.36,12.44.58,6.13.32,12.25.76,18.39,1q16,.52,31.94.8,11.85.19,23.67-.8A64.44,64.44,0,0,0,466.17,216a16.91,16.91,0,0,0,3.6-1.52c2.23-1.29,2.46-3.09.8-5l-.85-1,0,0ZM266.4,394.8h0l-.33-.08a7.54,7.54,0,0,1-.37-.85c-.63-2.07-1.33-4.13-1.87-6.22q-6.12-23.7-12.17-47.43c-1.27-5-2.32-10.11-3.41-15.17-.59-2.73-.09-3.77,2.27-5.35.23-.16.44-.36.83-.68-7.09-.67-13.9,0-20.9.22a4.26,4.26,0,0,0,1.78,1.87,7.73,7.73,0,0,1,3.21,4.06c.42,1.24.93,2.44,1.36,3.68a156.69,156.69,0,0,1,4.6,18.35c.9,4.28,1.64,8.6,2.78,12.82,1.23,4.57,2.52,9.12,3.51,13.75.7,3.31,1.34,6.63,2.19,9.9,3.44,13.17,6.95,26.33,10.43,39.49.12.45.26.9.48,1.68.27-.76.44-1.21.6-1.67,3.59-10.45,7.15-20.91,10.77-31.34a235.08,235.08,0,0,0,9.14-32.8c1.37-7.15,2.24-14.35,1.5-21.66a46.65,46.65,0,0,0-5.95-19.09,12.68,12.68,0,0,0-1.22-1.78c-.68-.81-.91-.86-1.82-.26-2.07,1.36-4.12,2.76-6.18,4.15l-4.46,3c.06.1.07.15.11.17a3.3,3.3,0,0,0,.46.26,12.9,12.9,0,0,1,5.64,4.5,25.46,25.46,0,0,1,2.54,4.14,47.74,47.74,0,0,1,4,28.75c-1.1,6.32-2.68,12.52-4.37,18.69a114.49,114.49,0,0,1-4.44,13.48c-.19.47-.47.91-.7,1.37Zm-68-113.21h0a6.66,6.66,0,0,1,1.29.27,13.59,13.59,0,0,1,2.64,1.3c1.27.92,1.44,2.05,1,3.57-1.72,5.37-3.47,10.72-5.05,16.13a37.88,37.88,0,0,0-1.68,11.61,116.05,116.05,0,0,0,2,19.23c1,5.19,2.17,10.32,4.79,15a16.59,16.59,0,0,1,1.2,3.16,34.39,34.39,0,0,0,3.4,7.2,62.46,62.46,0,0,0,20.58,21.51,32.75,32.75,0,0,0,13.07,4.92,9.13,9.13,0,0,0,3,.11,1.19,1.19,0,0,0,0-.35.9.9,0,0,0-.25-.32,3.08,3.08,0,0,0-.6-.31,41.94,41.94,0,0,1-17.45-13.31c-13.62-17-19.63-41-15-62.47a61.92,61.92,0,0,1,4.9-14.86,22.85,22.85,0,0,1,4-5.9c4.1-4.19,9.62-4.61,14.32-1.1a14.38,14.38,0,0,1,5.55,8.86,3.08,3.08,0,0,0,.57,1.7,4.17,4.17,0,0,0,.5-.67q.5-1.11.94-2.25a71.31,71.31,0,0,0,4.32-14.21c.1-.58.11-1.18.17-1.77l-.24-.16c-1.43,1.56-3.25,1.58-5.14,1.58q-20.58,0-41.17,0c-.52,0-1,0-1.58,0v1.5Zm123.55-53.21h0c.29.19.39.3.5.32,2.89.5,5.77,1.05,8.67,1.46,7.41,1,14.86,1.86,22.25,3,11.13,1.78,22.21,3.86,33.34,5.69,5.07.83,10.18,1.53,15.29,2,5.3.5,10.62.76,15.94,1a149.63,149.63,0,0,0,33.69-2.26,115.66,115.66,0,0,0,29-9.69,5.52,5.52,0,0,0,.66-.45,2.62,2.62,0,0,0-1.15-.07c-6.3.83-12.6,1.78-18.92,2.48-5.87.65-11.76,1.18-17.66,1.5a196.92,196.92,0,0,1-27.72-.84c-7.28-.64-14.56-1.34-21.83-2-8.58-.83-17.15-1.7-25.72-2.56-7.5-.74-15-1.27-22.56-1.32A141.61,141.61,0,0,0,321.95,228.39Z"/><path class="cls-4" d="M341.56,257.91a10.77,10.77,0,0,1,3.94-5.61,11.82,11.82,0,0,1,6.35-2.06,35,35,0,0,1,11.35,1.49c10,2.71,20.12,5,30.3,7a163.17,163.17,0,0,0,20.62,2.88c.22,0,.43.08.76.14-.09.92-.21,1.8-.27,2.68-.16,2.52-.4,5-.42,7.56a25.44,25.44,0,0,0,2,9.2A116.84,116.84,0,0,0,422.34,294c2.94,5.64,5.94,11.25,8.73,17a51.15,51.15,0,0,1,4.61,14.1,28.9,28.9,0,0,1-.11,10.62,12.91,12.91,0,0,1-4.64,7.72,35.3,35.3,0,0,1-4.23,2.9c-1.79,1-3.69,1.9-5.49,2.92a2,2,0,0,1-2.37-.1c-.71-.49-1.45-.92-2.18-1.36-.54-.32-1.09-.63-1.65-.92a4.65,4.65,0,0,0-3.92-.2,119.67,119.67,0,0,0-13.21,5.9,158.19,158.19,0,0,0-27.15,17.23,73,73,0,0,0-5.65,5.25,13.87,13.87,0,0,0-3.05,4.89,56.86,56.86,0,0,0-3.11,13.68c-.36,2.86-.64,5.73-1,8.8-.54-.29-1-.52-1.45-.78a107.45,107.45,0,0,1-19.56-14.89,137.34,137.34,0,0,1-31.46-44.94,93.06,93.06,0,0,1-6.82-22.6c-1-6.55-1.28-13.1.38-19.61a24.52,24.52,0,0,1,6.5-11.82c.52-1.5,1.94-1.83,3.16-2.38,4-1.8,8.1-3.55,12.15-5.31a6.58,6.58,0,0,1,.68-.2c.12.3.23.54.31.78a5.37,5.37,0,0,0,4.29,3.69,15.83,15.83,0,0,0,5.39.09c2.46-.31,4.92-.64,7.37-1a27.9,27.9,0,0,1,15.22,2.07l2,.88a21.16,21.16,0,0,0,8.14,1.76c1.52,0,3,.16,4.65.25a2.39,2.39,0,0,1-1.12,1.86,13.58,13.58,0,0,1-3.43,1.83c-2.51.71-5.09,1.15-7.65,1.68-1,.21-2,.35-3.06.54-.43.08-.94.08-1,.7a1.68,1.68,0,0,0,1,1.48,1.89,1.89,0,0,0,.54,0c5.19,0,10.38.06,15.57-.12,7.9-.27,14.22-3.9,19.44-9.66.15-.17.29-.34.43-.52,1.55-2,1.61-3.41,0-5.35-5.31-6.25-11.05-12-18-16.5a43,43,0,0,0-16.23-6.47,42.21,42.21,0,0,0-12.8-.09c-.26,0-.52,0-1,.07Zm78.86,83.33h0l.23-.18c-.43-.62-.82-1.27-1.3-1.85a13.59,13.59,0,0,0-5.85-4,32.16,32.16,0,0,0-12.91-1.69,4.48,4.48,0,0,0-1.19.24,3.13,3.13,0,0,0-1.86,4.76,5.21,5.21,0,0,0,1.11,1.35,8.89,8.89,0,0,0,9.5,1.09,24.51,24.51,0,0,0,3.28-2.13,4.4,4.4,0,0,1,4.71-.57,22.24,22.24,0,0,1,3.29,2.07,8.21,8.21,0,0,1,1,.91Zm-28.36-16.75h0a4,4,0,0,0-.73-.08,2.4,2.4,0,0,0-.64.19,11.84,11.84,0,0,0-4.7,3.54,7.93,7.93,0,0,0-1.71,6.2c.45,3.19,2.35,5.48,4.71,7.47,0,0,.07.08.11.07a1.68,1.68,0,0,0,.72-.07c.12-.06.17-.4.11-.58-.13-.43-.35-.83-.52-1.24a13.81,13.81,0,0,1-1-7.12,16.89,16.89,0,0,1,2.63-6.73Z"/><path class="cls-1" d="M461.23,203.06c-3.25.15-6.35-.79-9.51-1.22-4.24-.57-8.49-1.1-12.75-1.53-4.08-.41-8.17-.68-12.26-1-3.33-.24-6.66-.44-10-.66-3.51-.24-7-.52-10.52-.73-5.26-.32-10.53-.61-15.8-.9-5-.28-9.9-.56-14.86-.81q-8.65-.43-17.3-.81-6.83-.3-13.65-.54c-5.86-.2-11.72-.35-17.58-.56-20.84-.72-41.69-.6-62.54-.37-5.36.06-10.73.42-16.09.64-3.07.13-6.13.2-9.19.38-4.72.28-9.45.63-14.17,1-3.55.26-7.1.53-10.65.87s-7.26.78-10.88,1.22c-2.73.33-5.44.75-8.17,1.1a1.44,1.44,0,0,1-.89-.17c-3.4-2.18-5.92-5.81-5.49-10.17a10.94,10.94,0,0,1,2.73-6.22,17.18,17.18,0,0,1,12.32-6c6.57-.41,13.15-.69,19.73-1,4.73-.23,9.46-.41,14.2-.63,6.94-.32,13.88-.67,20.82-1,3-.14,6-.23,8.93-.34,9.11-.34,18.21-.71,27.32-1,5.5-.18,11-.32,16.51-.36,15-.11,30.06-.23,45.08-.19,8,0,16.06.3,24.09.55,6.13.19,12.26.48,18.39.8s12.16.68,18.23,1.09q8.77.6,17.53,1.34c5.62.48,11.22,1,16.83,1.6a12.23,12.23,0,0,1,2.23.55,37.61,37.61,0,0,1,9.3,4A16.74,16.74,0,0,1,469,187.6a13.82,13.82,0,0,1,1.34,10.34c-.24,1.1-.67,2.15-.93,3.25a1.82,1.82,0,0,1-1.93,1.52C465.37,202.81,463.3,202.94,461.23,203.06Z"/><path class="cls-3" d="M394.05,509.91c.4-.34.82-.66,1.21-1,8.94-8.48,17.9-16.94,26.44-25.83a191,191,0,0,0,16.12-18.61,56.79,56.79,0,0,0,6.51-10.74c.47-1.06.84-2.16,1.34-3.48a3.46,3.46,0,0,0-.54.36,52.66,52.66,0,0,1-11.22,9.52A164.8,164.8,0,0,1,405.6,475a110.36,110.36,0,0,1-19,6.33c-1.84.4-3.74.6-5.61.85a3.38,3.38,0,0,1-1.73-.23c.22-.1.43-.22.65-.31,7.31-2.87,14.39-6.26,21.38-9.82,6.07-3.09,12-6.37,18-9.62,1.58-.86,3-1.95,4.53-3a2.94,2.94,0,0,0,1.05-1.23l-1.45.59a98.61,98.61,0,0,1-25.58,6.67,123.67,123.67,0,0,1-25.54.44,151.69,151.69,0,0,1-24.26-4.08,1.94,1.94,0,0,1-1.67-1.76c-.34-1.77-.82-3.51-1.24-5.27-.07-.3-.1-.61-.18-1a8,8,0,0,1,1.09.1c7.25,1.68,14.56,3.1,21.93,4.14a134.5,134.5,0,0,0,26.32,1.41c7.48-.42,14.79-1.67,21.66-4.84,2.62-1.21,5.21-2.47,7.8-3.74a45.23,45.23,0,0,0,19.62-18.83,84.08,84.08,0,0,0,7.8-19.84,201.63,201.63,0,0,0,4.58-22.53q1.94-12.84,3.71-25.71c.93-6.88,1.75-13.78,2.55-20.68q1.23-10.62,2.32-21.25c.54-5.21,1-10.42,1.47-15.63.62-7,1.2-13.94,1.79-20.9a35.08,35.08,0,0,1,.62-4.87c.28,1.56.6,3.11.83,4.67,1.08,7.64,2.27,15.26,3.16,22.91.78,6.72,1.27,13.47,1.78,20.22.74,9.73.91,19.47.76,29.23-.15,9.48-.74,18.93-1.83,28.36a221.39,221.39,0,0,1-6.6,33.68c-3.88,14-10.63,26.48-19,38.2a208.08,208.08,0,0,1-29.66,32.76c-7.35,6.69-15,13-22.72,19.26-.21.17-.43.32-.65.48Z"/><path class="cls-1" d="M458.83,164.39a13.61,13.61,0,0,1-1.76,6.29,1,1,0,0,1-1.21.57c-5.22-.72-10.44-1.45-15.67-2.1-4.52-.56-9-1.05-13.58-1.52-4.26-.44-8.53-.82-12.8-1.2-4.81-.43-9.61-.85-14.42-1.23-3.28-.26-6.57-.45-9.86-.67L379,163.87c-2-.13-4.05-.25-6.08-.33l-16.23-.65c-14.48-.59-29-.8-43.45-.73q-11.78.06-23.55.31c-5.41.11-10.82.33-16.23.54q-5.74.22-11.49.54c-5.13.29-10.26.68-15.39,1-3.29.18-6.58.26-9.87.38-4.91.19-9.83.3-14.74.58-4.36.25-8.72.6-13.07,1-2.64.26-5.27.71-7.89,1.17a1.68,1.68,0,0,1-1.8-.54,20.61,20.61,0,0,1-2-2.57,4,4,0,0,1,.67-5.09,11.88,11.88,0,0,1,3.67-2.51,39.45,39.45,0,0,1,8.61-2.79,108.28,108.28,0,0,1,17.42-2.26q15.89-.86,31.79-1.11c6.5-.11,13-.27,19.49-.3q22.82-.11,45.63-.09c7.09,0,14.17.13,21.26.25q13.2.23,26.4.55,8.53.2,17,.53,10.08.37,20.15.83c4.87.22,9.73.48,14.59.81q8.84.6,17.67,1.37c2.78.24,5.55.62,8.31,1a12.73,12.73,0,0,1,5.5,2.16A7.34,7.34,0,0,1,458.83,164.39Z"/><path class="cls-3" d="M241.34,144c.39-.63.63-1,.89-1.43a53.47,53.47,0,0,1,21.36-18.65,117,117,0,0,1,26.54-9.52,51,51,0,0,1,5.76-.72c4.89-.52,9.77-1.14,14.67-1.51a96.76,96.76,0,0,1,23.89.67,27,27,0,0,1,8.11,2.48,15.33,15.33,0,0,1,3.31,2.3,5.69,5.69,0,0,1,1.35,6.81,12.52,12.52,0,0,1-2.79,4,31,31,0,0,1-7.57,5.41,70.49,70.49,0,0,1-18.18,6.42,111.89,111.89,0,0,1-29.45,2.49c-4.46-.21-8.9-.77-13.35-1q-6.21-.33-12.45-.28a103.07,103.07,0,0,0-14.58,1c-2.18.33-4.32.87-6.48,1.31C242.13,143.8,241.88,143.88,241.34,144Z"/><path class="cls-4" d="M367,406.88a27.6,27.6,0,0,1,.61-7.34,31.48,31.48,0,0,1,9.2-16.84,24.74,24.74,0,0,1,2.81-2.32,103.07,103.07,0,0,1,24.72-13.28A84.5,84.5,0,0,1,415.33,364a6.71,6.71,0,0,1,3.21.05c2.17.6,4.35,1.18,6.5,1.85a2.54,2.54,0,0,0,2.31-.23,15.73,15.73,0,0,1,1.56-.81c1.09-.54,1.64-.46,2.25.33a2,2,0,0,1,0,2.62,3,3,0,0,1-.49.46,12,12,0,0,1-6.57,2.62,5.5,5.5,0,0,1-1.47-.12c-.8-.15-1.58-.38-2.37-.56a8.32,8.32,0,0,0-5,.37c-6.35,2.46-12.73,4.83-19.11,7.21-.88.33-1.8.58-2.71.84a3.65,3.65,0,0,0-2.09,1.41c-.62.89-.4,1.74.63,2a8.78,8.78,0,0,0,2.67.26,21.63,21.63,0,0,0,6.85-1.49c2.13-.85,4.24-1.78,6.35-2.7a39.74,39.74,0,0,1,8.17-2.81,24.34,24.34,0,0,1,13.43,1.24,18.21,18.21,0,0,0,2.58.72c2.78.58,4.21,3.2,3.31,6.19a7.59,7.59,0,0,1-4.75,5.05,58.41,58.41,0,0,1-16.1,4,40,40,0,0,1-6.61-.19,12.44,12.44,0,0,1-5.56-2,6.89,6.89,0,0,0-3.15-1.14,4,4,0,0,0-2.59.59,1.65,1.65,0,0,0-.37,2.73,28.88,28.88,0,0,0,8,6.11,25.45,25.45,0,0,1,2.3,1.15,20.88,20.88,0,0,1,3.38,2.45c2.42,2.37,2.4,5,1.34,7.73a1.5,1.5,0,0,1-1.23.91,62,62,0,0,1-10.94,1.78,68.52,68.52,0,0,1-30.7-5.11c-.33-.13-.67-.27-1-.42A3.2,3.2,0,0,1,367,406.88Z"/><path class="cls-3" d="M469.71,208.47l-1.17-.38.12-.26a1.25,1.25,0,0,1,1,.67Z"/><path class="cls-2" d="M266.4,394.8c.24-.46.51-.9.7-1.37A114.49,114.49,0,0,0,271.55,380c1.69-6.18,3.27-12.38,4.37-18.69a47.74,47.74,0,0,0-4-28.75,25.46,25.46,0,0,0-2.54-4.14,12.9,12.9,0,0,0-5.64-4.5,3.3,3.3,0,0,1-.46-.26s0-.07-.11-.17l4.46-3c2.05-1.39,4.1-2.79,6.18-4.15.91-.6,1.14-.56,1.82.26a12.68,12.68,0,0,1,1.22,1.78,46.65,46.65,0,0,1,5.95,19.09c.74,7.31-.13,14.5-1.5,21.66a235.08,235.08,0,0,1-9.14,32.8c-3.63,10.44-7.18,20.89-10.77,31.34-.16.46-.33.91-.6,1.67-.22-.77-.36-1.22-.48-1.68-3.48-13.16-7-26.32-10.43-39.49-.85-3.27-1.48-6.6-2.19-9.9-1-4.63-2.27-9.18-3.51-13.75-1.14-4.22-1.88-8.54-2.78-12.82a156.69,156.69,0,0,0-4.6-18.35c-.42-1.24-.93-2.44-1.36-3.68a7.73,7.73,0,0,0-3.21-4.06,4.26,4.26,0,0,1-1.78-1.87c7-.24,13.82-.9,20.9-.22-.39.33-.6.53-.83.68-2.36,1.58-2.86,2.62-2.27,5.35,1.09,5.07,2.14,10.15,3.41,15.17q6,23.73,12.17,47.43c.54,2.09,1.23,4.15,1.87,6.22a7.54,7.54,0,0,0,.37.85Z"/><path class="cls-2" d="M198.4,281.59v-1.5c.54,0,1.06,0,1.58,0q20.58,0,41.17,0c1.89,0,3.71,0,5.14-1.58l.24.16c-.05.59-.07,1.18-.17,1.77A71.31,71.31,0,0,1,242,294.63q-.44,1.13-.94,2.25a4.17,4.17,0,0,1-.5.67,3.08,3.08,0,0,1-.57-1.7,14.38,14.38,0,0,0-5.55-8.86c-4.71-3.51-10.22-3.09-14.32,1.1a22.85,22.85,0,0,0-4,5.9,61.92,61.92,0,0,0-4.9,14.86c-4.59,21.46,1.42,45.51,15,62.47a41.94,41.94,0,0,0,17.45,13.31,3.08,3.08,0,0,1,.6.31.9.9,0,0,1,.25.32,1.19,1.19,0,0,1,0,.35,9.13,9.13,0,0,1-3-.11,32.75,32.75,0,0,1-13.07-4.92,62.46,62.46,0,0,1-20.58-21.51,34.39,34.39,0,0,1-3.4-7.2,16.59,16.59,0,0,0-1.2-3.16c-2.61-4.69-3.78-9.82-4.79-15a116.05,116.05,0,0,1-2-19.23,37.88,37.88,0,0,1,1.68-11.61c1.58-5.41,3.34-10.76,5.05-16.13.48-1.51.31-2.64-1-3.57a13.59,13.59,0,0,0-2.64-1.3A6.66,6.66,0,0,0,198.4,281.59Z"/><path class="cls-2" d="M321.95,228.39a141.61,141.61,0,0,1,23.82-1.77c7.55,0,15.06.58,22.56,1.32,8.57.85,17.15,1.72,25.72,2.56,7.27.71,14.55,1.41,21.83,2a196.92,196.92,0,0,0,27.72.84c5.9-.32,11.79-.85,17.66-1.5,6.32-.7,12.61-1.64,18.92-2.48a2.62,2.62,0,0,1,1.15.07,5.52,5.52,0,0,1-.66.45,115.66,115.66,0,0,1-29,9.69,149.63,149.63,0,0,1-33.69,2.26c-5.32-.2-10.64-.46-15.94-1-5.11-.48-10.22-1.18-15.29-2-11.12-1.83-22.21-3.91-33.34-5.69-7.39-1.18-14.84-2-22.25-3-2.9-.41-5.78-1-8.67-1.46C322.34,228.69,322.24,228.58,321.95,228.39Z"/><path class="cls-2" d="M420.42,341.23a8.21,8.21,0,0,0-1-.91,22.24,22.24,0,0,0-3.29-2.07,4.4,4.4,0,0,0-4.71.57,24.51,24.51,0,0,1-3.28,2.13,8.89,8.89,0,0,1-9.5-1.09,5.21,5.21,0,0,1-1.11-1.35,3.13,3.13,0,0,1,1.86-4.76,4.48,4.48,0,0,1,1.19-.24,32.16,32.16,0,0,1,12.91,1.69,13.59,13.59,0,0,1,5.85,4c.48.58.87,1.23,1.3,1.85Z"/><path class="cls-2" d="M392.07,324.49,391,326.12a16.89,16.89,0,0,0-2.63,6.73,13.81,13.81,0,0,0,1,7.12c.17.42.39.82.52,1.24.05.17,0,.51-.11.58a1.68,1.68,0,0,1-.72.07s-.08,0-.11-.07c-2.36-2-4.26-4.28-4.71-7.47a7.93,7.93,0,0,1,1.71-6.2,11.84,11.84,0,0,1,4.7-3.54,2.4,2.4,0,0,1,.64-.19A4,4,0,0,1,392.07,324.49Z"/><path class="cls-3" d="M71.34,423.85a16,16,0,1,0-16-16A16,16,0,0,0,71.34,423.85Z"/><path class="cls-3" d="M591.14,423.85a16,16,0,1,0-16-16A16,16,0,0,0,591.14,423.85Z"/></g></g></svg>